<svg id="visual" viewBox="0 0 900 600" width="900" height="600" xmlns="http://www.w3.org/2000/svg" xmlns:xlink="http://www.w3.org/1999/xlink" version="1.1"><path d="M557 600L554.7 583.3C552.3 566.7 547.7 533.3 556.5 500C565.3 466.7 587.7 433.3 602.5 400C617.3 366.7 624.7 333.3 619.3 300C614 266.7 596 233.3 581.7 200C567.3 166.7 556.7 133.3 549.8 100C543 66.7 540 33.3 538.5 16.7L537 0L900 0L900 16.7C900 33.3 900 66.7 900 100C900 133.3 900 166.7 900 200C900 233.3 900 266.7 900 300C900 333.3 900 366.7 900 400C900 433.3 900 466.7 900 500C900 533.3 900 566.7 900 583.3L900 600Z" fill="#dfecfa"></path><path d="M676 600L678.8 583.3C681.7 566.7 687.3 533.3 677.5 500C667.7 466.7 642.3 433.3 641.2 400C640 366.7 663 333.3 663.5 300C664 266.7 642 233.3 639.3 200C636.7 166.7 653.3 133.3 663.2 100C673 66.7 676 33.3 677.5 16.7L679 0L900 0L900 16.7C900 33.3 900 66.7 900 100C900 133.3 900 166.7 900 200C900 233.3 900 266.7 900 300C900 333.3 900 366.7 900 400C900 433.3 900 466.7 900 500C900 533.3 900 566.7 900 583.3L900 600Z" fill="#c0dbfa"></path><path d="M648 600L664.5 583.3C681 566.7 714 533.3 723.5 500C733 466.7 719 433.3 713.8 400C708.7 366.7 712.3 333.3 704.7 300C697 266.7 678 233.3 677.3 200C676.7 166.7 694.3 133.3 696.2 100C698 66.7 684 33.3 677 16.7L670 0L900 0L900 16.7C900 33.3 900 66.7 900 100C900 133.3 900 166.7 900 200C900 233.3 900 266.7 900 300C900 333.3 900 366.7 900 400C900 433.3 900 466.7 900 500C900 533.3 900 566.7 900 583.3L900 600Z" fill="#a1c9f9"></path><path d="M754 600L758.5 583.3C763 566.7 772 533.3 768.7 500C765.3 466.7 749.7 433.3 739.3 400C729 366.7 724 333.3 727.3 300C730.7 266.7 742.3 233.3 739.7 200C737 166.7 720 133.3 711.5 100C703 66.7 703 33.3 703 16.7L703 0L900 0L900 16.7C900 33.3 900 66.7 900 100C900 133.3 900 166.7 900 200C900 233.3 900 266.7 900 300C900 333.3 900 366.7 900 400C900 433.3 900 466.7 900 500C900 533.3 900 566.7 900 583.3L900 600Z" fill="#81b7f9"></path><path d="M826 600L824.8 583.3C823.7 566.7 821.3 533.3 818.8 500C816.3 466.7 813.7 433.3 808.7 400C803.7 366.7 796.3 333.3 792.5 300C788.7 266.7 788.3 233.3 783.7 200C779 166.7 770 133.3 763.7 100C757.3 66.7 753.7 33.3 751.8 16.7L750 0L900 0L900 16.7C900 33.3 900 66.7 900 100C900 133.3 900 166.7 900 200C900 233.3 900 266.7 900 300C900 333.3 900 366.7 900 400C900 433.3 900 466.7 900 500C900 533.3 900 566.7 900 583.3L900 600Z" fill="#60a5f8"></path><path d="M807 600L817.3 583.3C827.7 566.7 848.3 533.3 858.3 500C868.3 466.7 867.7 433.3 862.3 400C857 366.7 847 333.3 845 300C843 266.7 849 233.3 845.5 200C842 166.7 829 133.3 829.8 100C830.7 66.7 845.3 33.3 852.7 16.7L860 0L900 0L900 16.7C900 33.3 900 66.7 900 100C900 133.3 900 166.7 900 200C900 233.3 900 266.7 900 300C900 333.3 900 366.7 900 400C900 433.3 900 466.7 900 500C900 533.3 900 566.7 900 583.3L900 600Z" fill="#3792f6"></path></svg>