<svg id="visual" viewBox="0 0 900 600" width="900" height="600" xmlns="http://www.w3.org/2000/svg" xmlns:xlink="http://www.w3.org/1999/xlink" version="1.1"><path d="M0 415L129 412L257 381L386 417L514 350L643 413L771 411L900 388L900 601L771 601L643 601L514 601L386 601L257 601L129 601L0 601Z" fill="#e5f0f6"></path><path d="M0 397L129 428L257 434L386 442L514 478L643 410L771 448L900 417L900 601L771 601L643 601L514 601L386 601L257 601L129 601L0 601Z" fill="#b5dbf6"></path><path d="M0 466L129 461L257 474L386 506L514 456L643 453L771 478L900 458L900 601L771 601L643 601L514 601L386 601L257 601L129 601L0 601Z" fill="#88c4f7"></path><path d="M0 523L129 481L257 503L386 510L514 490L643 499L771 535L900 536L900 601L771 601L643 601L514 601L386 601L257 601L129 601L0 601Z" fill="#5eacf8"></path><path d="M0 566L129 570L257 542L386 535L514 568L643 555L771 553L900 538L900 601L771 601L643 601L514 601L386 601L257 601L129 601L0 601Z" fill="#3792f6"></path></svg>